<svg width="24" height="24" viewBox="0 0 24 24" fill="none" xmlns="http://www.w3.org/2000/svg">
<path d="M6 3V7M18 3V7M12 3V7" stroke="#333333" stroke-width="2" stroke-linecap="round" stroke-linejoin="round"/>
<path fill-rule="evenodd" clip-rule="evenodd" d="M3 7C3 5.34315 4.34315 4 6 4H18C19.6569 4 21 5.34315 21 7V21C21 21.5523 20.5523 22 20 22H4C3.44772 22 3 21.5523 3 21V7ZM6 10C6 9.44772 6.44772 9 7 9H17C17.5523 9 18 9.44772 18 10V18C18 18.5523 17.5523 19 17 19H7C6.44772 19 6 18.5523 6 18V10ZM7 11C7 10.4477 7.44772 10 8 10H16C16.5523 10 17 10.4477 17 11V17C17 17.5523 16.5523 18 16 18H8C7.44772 18 7 17.5523 7 17V11Z" fill="#333333"/>
<path d="M9 13H15M9 15H15" stroke="#FFFFFF" stroke-width="2" stroke-linecap="round" stroke-linejoin="round"/>
</svg>